<?xml version="1.0" encoding="iso-8859-1"?>
<svg xmlns="http://www.w3.org/2000/svg" version="1.1" x="0px" y="0px"
     viewBox="0 0 512 512" style="enable-background:new 0 0 512 512;" xml:space="preserve">
  <!-- Purple Circle -->
  <circle style="fill:#9B59B6;" cx="255.997" cy="288.45" r="165.171"/>
  
  <!-- Deeper purple shadow section -->
  <path style="fill:#7D3C98;" d="M156.452,246.576c0-44.429,17.547-84.757,46.083-114.442
    c-64.978,22.22-111.699,83.809-111.699,156.315c0,91.219,73.948,165.165,165.168,165.165
    c46.79,0,89.031-19.461,119.084-50.725C267.943,439.528,156.452,359.686,156.452,246.576z"/>

  <!-- Star element (purple glow effect) -->
  <path style="fill:#BB8FCE;" d="M379.557,15.855l15.058,42.663h35.658c6.903,0,12.501,5.598,12.501,12.501
    c0,6.904-5.597,12.501-12.501,12.501h-35.658l-15.058,42.663c-2.088,5.918-8.24,9.37-14.379,8.069
    c-6.055-1.281-10.361-6.853-9.872-13.206l2.942-37.525h-26.136l-7.815,12.231c-3.717,5.817-11.446,7.521-17.265,3.804
    c-5.816-3.718-7.522-11.443-3.804-17.265l7.2-11.272l-7.2-11.271c-3.719-5.824-2.009-13.551,3.804-17.265
    c5.818-3.717,13.548-2.014,17.265,3.804l7.815,12.23h26.136l-2.942-37.523c-0.495-6.229,3.715-11.903,9.872-13.208
    C371.317,6.485,377.468,9.938,379.557,15.855z"/>

  <!-- Accent shading -->
  <path style="fill:#8E44AD;" d="M442.32,67.72c-4.159,4.517-13.651,3.299-13.651,3.299H310.431
    c-7.63,11.944-9.169,13.411-9.169,17.989c0,12.402,16.303,17.282,23.037,6.742l7.815-12.231h26.136
    c-3.129,39.909-2.981,37.752-2.981,38.513c0,13.949,19.637,17.338,24.29,4.15l15.058-42.663h35.658
    C438.424,83.52,444.523,75.784,442.32,67.72z"/>

  <!-- Outline and structure in light gray for contrast -->
  <path style="fill:#D7DBDD;" d="M473.014,280.346c-4.14-0.007-7.505,3.345-7.512,7.488
    c-0.184,115.155-93.19,209.164-209.836,209.164c-115.519-0.185-209.351-94.317-209.166-209.836
    c0.182-112.761,89.883-204.84,201.607-209.001l-12.412,10.48c-3.165,2.672-3.564,7.404-0.892,10.569
    c2.672,3.166,7.405,3.564,10.57,0.893l28.255-23.856c3.54-2.988,3.547-8.448,0.018-11.446l-28.179-23.945
    c-3.156-2.683-7.89-2.301-10.573,0.858c-2.682,3.156-2.298,7.891,0.859,10.572l12.761,10.844
    C128.37,66.983,31.695,165.42,31.498,287.139C31.402,347.105,54.665,403.519,97,445.99
    C138.097,487.22,194.058,512,256.011,512c122.669,0,224.291-98.999,224.491-224.142
    C480.509,283.716,477.156,280.353,473.014,280.346z"/>
</svg>
